HIERARCHY
ROOT Hips
{
	OFFSET 0.00000 0.00000 0.00000
	CHANNELS 6 Xposition Yposition Zposition Zrotation Yrotation Xrotation 
	JOINT LHipJoint
	{
		OFFSET 0 0 0
		CHANNELS 3 Zrotation Yrotation Xrotation
		JOINT LeftHip
		{
			OFFSET 1.37959 -1.78713 0.86582
			CHANNELS 3 Zrotation Yrotation Xrotation
			JOINT LeftKnee
			{
				OFFSET 2.54611 -6.99539 0.00000
				CHANNELS 3 Zrotation Yrotation Xrotation
				JOINT LeftAnkle
				{
					OFFSET 2.59951 -7.14211 0.00000
					CHANNELS 3 Zrotation Yrotation Xrotation
					JOINT LeftToe
					{
						OFFSET 0.18493 -0.50810 1.96120
						CHANNELS 3 Zrotation Yrotation Xrotation
						End Site
						{
							OFFSET 0.00000 -0.00000 1.02054
						}
					}
				}
			}
		}
	}
	JOINT RHipJoint
	{
		OFFSET 0 0 0
		CHANNELS 3 Zrotation Yrotation Xrotation
		JOINT RightHip
		{
			OFFSET -1.33564 -1.78713 0.86582
			CHANNELS 3 Zrotation Yrotation Xrotation
			JOINT RightKnee
			{
				OFFSET -2.52705 -6.94302 0.00000
				CHANNELS 3 Zrotation Yrotation Xrotation
				JOINT RightAnkle
				{
					OFFSET -2.55964 -7.03257 0.00000
					CHANNELS 3 Zrotation Yrotation Xrotation
					JOINT RightToe
					{
						OFFSET -0.25804 -0.70896 2.12109
						CHANNELS 3 Zrotation Yrotation Xrotation
						End Site
						{
							OFFSET -0.00000 -0.00000 1.11821
						}
					}
				}
			}
		}
	}
	JOINT lowerback
	{
		OFFSET 0 0 0
		CHANNELS 3 Zrotation Yrotation Xrotation
		JOINT Chest
		{
			OFFSET -0.02031 2.24248 -0.18900
			CHANNELS 3 Zrotation Yrotation Xrotation
			JOINT Chest2
			{
				OFFSET 0.08342 2.24689 -0.03799
				CHANNELS 3 Zrotation Yrotation Xrotation
				JOINT lowerneck
				{
					OFFSET 0 0 0
					CHANNELS 3 Zrotation Yrotation Xrotation
					JOINT Neck
					{
						OFFSET -0.11607 1.55844 0.24628
						CHANNELS 3 Zrotation Yrotation Xrotation
						JOINT Head
						{
							OFFSET 0.06877 1.60174 -0.17013
							CHANNELS 3 Zrotation Yrotation Xrotation
							End Site
							{
								OFFSET 0.03358 1.61266 -0.08543
							}
						}
					}
				}
				JOINT LeftCollar
				{
					OFFSET 0 0 0
					CHANNELS 3 Zrotation Yrotation Xrotation
					JOINT LeftShoulder
					{
						OFFSET 3.47537 0.55866 -0.72348
CHANNELS 3 Zrotation Xrotation Yrotation
						JOINT LeftElbow
						{
OFFSET 0 -5.381540 0.000000
CHANNELS 3 Zrotation Xrotation Yrotation
							JOINT LeftWrist
							{
OFFSET 0 -3.333120 0.000000
CHANNELS 3 Zrotation Xrotation Yrotation
								JOINT lhand
								{
									OFFSET 0 0 0
CHANNELS 3 Zrotation Xrotation Yrotation
									JOINT LFingers
									{
OFFSET 0 -0.710790 0.000000
CHANNELS 3 Zrotation Xrotation Yrotation
										End Site
										{
OFFSET 0 -0.573060 0.000000
										}
									}
								}
								JOINT LThumb
								{
OFFSET 0 0.000000 0.000000
CHANNELS 3 Zrotation Xrotation Yrotation
									End Site
									{
OFFSET 0 -0.581810 0.581810
									}
								}
							}
						}
					}
				}
				JOINT RightCollar
				{
					OFFSET 0 0 0
					CHANNELS 3 Zrotation Yrotation Xrotation
					JOINT RightShoulder
					{
						OFFSET -3.27844 0.90739 -0.35708
CHANNELS 3 Zrotation Xrotation Yrotation
						JOINT RightElbow
						{
OFFSET 0 -5.169540 0.000000
CHANNELS 3 Zrotation Xrotation Yrotation
							JOINT RightWrist
							{
OFFSET 0 -3.382870 0.000000
CHANNELS 3 Zrotation Xrotation Yrotation
								JOINT rhand
								{
									OFFSET 0 0 0
CHANNELS 3 Zrotation Xrotation Yrotation
									JOINT RFingers
									{
OFFSET 0 -0.817970 0.000000
CHANNELS 3 Zrotation Xrotation Yrotation
										End Site
										{
OFFSET 0 -0.659470 0.000000
										}
									}
								}
								JOINT RThumb
								{
OFFSET 0 0.000000 0.000000
CHANNELS 3 Zrotation Xrotation Yrotation
									End Site
									{
OFFSET 0 -0.669530 0.669530
									}
								}
							}
						}
					}
				}
			}
		}
	}
}
MOTION
Frames: 5
Frame Time: 0.008333333333333333
12.259952 10.108168 7.935103 0.903500 -59.434189 -29.231407 0.000000 0.000000 0.000000 10.453201 -4.874522 -59.846721 22.100966 19.893536 96.153242 -0.478737 -12.204884 3.265143 0.301911 -3.520636 -9.733099 0.000000 0.000000 0.000000 -2.684157 8.484597 -63.572042 -22.905562 -19.796236 98.523143 0.096882 5.950723 4.566546 -0.044236 -1.357023 3.731816 -3.183081 2.831733 32.139066 0.848943 1.672830 14.135539 2.248904 0.190190 -1.551762 -17.627942 -15.521001 6.717980 18.938000 -25.824006 18.526096 6.773246 -12.864016 9.620593 0.000000 0.000000 0.000000 -0.463016 14.654370 -38.652588 46.177385 -51.331886 23.154592 20.854702 -15.034022 -46.046246 0.000000 0.000000 0.000000 -7.125000 0.000000 0.000000 -35.752425 75.619129 26.462512 0.000000 0.000000 0.000000 8.692228 -27.547770 23.544618 -34.618135 -44.537437 -14.544876 -22.517996 -1.646806 -30.991202 0.000000 0.000000 0.000000 7.125000 0.000000 0.000000 5.052129 -2.938674 5.325518
12.248561 10.097409 7.951331 1.027863 -59.470094 -29.416077 0.000000 0.000000 0.000000 10.252738 -4.857476 -59.973674 22.230464 19.880010 96.533984 -0.454397 -11.928107 2.907883 0.375972 -3.921773 -10.858868 0.000000 0.000000 0.000000 -2.950309 8.487374 -63.442060 -22.990317 -19.784124 98.773480 0.119213 6.661117 5.326561 -0.040282 -1.292109 3.552996 -3.061883 2.835691 31.972350 0.797166 1.716484 14.182771 2.109777 0.218055 -1.424363 -17.494841 -15.638842 6.482762 18.853748 -25.947838 18.568550 6.679008 -12.898501 9.671580 0.000000 0.000000 0.000000 -0.145169 14.339276 -39.263034 45.887597 -51.195426 22.928538 21.658234 -14.401696 -46.550403 0.000000 0.000000 0.000000 -7.125000 0.000000 0.000000 -36.370578 76.292474 27.426288 0.000000 0.000000 0.000000 8.423815 -27.308634 23.961870 -34.585495 -44.513839 -14.521973 -23.089151 -1.850649 -30.662818 0.000000 0.000000 0.000000 7.125000 0.000000 0.000000 4.677091 -2.725291 4.911677
12.236901 10.088015 7.968185 1.152471 -59.508057 -29.576162 0.000000 0.000000 0.000000 10.037063 -4.823161 -60.113424 22.354907 19.866416 96.900073 -0.434062 -11.703812 2.521072 0.458086 -4.334722 -12.021347 0.000000 0.000000 0.000000 -3.172615 8.449190 -63.327066 -23.066795 -19.772906 98.999433 0.146621 7.432695 6.010001 -0.034204 -1.191649 3.276260 -2.898538 2.845085 31.742750 0.743509 1.780474 14.260852 1.938862 0.256791 -1.234439 -17.402835 -15.803237 6.197903 18.802247 -26.137596 18.599550 6.582913 -12.960501 9.752700 0.000000 0.000000 0.000000 0.235785 13.973961 -40.040856 45.610696 -51.063910 22.712863 22.704891 -13.533359 -47.063039 0.000000 0.000000 0.000000 -7.125000 0.000000 0.000000 -36.815964 77.065323 28.333913 0.000000 0.000000 0.000000 8.157191 -27.093456 24.321384 -34.590192 -44.517265 -14.525289 -23.794419 -2.067982 -30.325463 0.000000 0.000000 0.000000 7.125000 0.000000 0.000000 4.223085 -2.531886 4.417995
12.224373 10.079706 7.983172 1.246132 -59.523970 -29.695402 0.000000 0.000000 0.000000 9.792740 -4.785546 -60.222876 22.450745 19.855253 97.182129 -0.411600 -11.462415 2.082000 0.399132 -4.030218 -11.165114 0.000000 0.000000 0.000000 -3.300123 8.320766 -63.234427 -23.139627 -19.761862 99.214838 0.197598 8.420955 6.483445 -0.025347 -1.011148 2.779588 -2.798131 2.866763 31.543837 0.745933 1.848110 14.281116 1.865218 0.296222 -1.126985 -17.439614 -15.907558 6.083975 18.827574 -26.266587 18.539789 6.557656 -13.012995 9.788981 0.000000 0.000000 0.000000 0.540866 13.744418 -40.893206 45.319557 -50.923410 22.486770 23.666255 -12.470219 -47.782503 0.000000 0.000000 0.000000 -7.125000 0.000000 0.000000 -38.400532 77.934055 30.276677 0.000000 0.000000 0.000000 7.913833 -26.688031 24.631588 -34.810051 -44.675215 -14.679960 -24.072271 -2.041244 -29.867397 0.000000 0.000000 0.000000 7.125000 0.000000 0.000000 3.994702 -2.118717 4.150587
12.211609 10.071694 7.997650 1.331341 -59.533861 -29.803488 0.000000 0.000000 0.000000 9.540594 -4.747031 -60.324055 22.538772 19.844754 97.441238 -0.388557 -11.216347 1.628657 0.301656 -3.529795 -9.757618 0.000000 0.000000 0.000000 -3.401744 8.167699 -63.147891 -23.211464 -19.750866 99.427363 0.255012 9.468384 6.899543 -0.015732 -0.808791 2.222856 -2.714911 2.891795 31.353305 0.763671 1.916741 14.285592 1.818138 0.335842 -1.042053 -17.511561 -15.995475 6.016725 18.873881 -26.378983 18.455243 6.551743 -13.062894 9.813019 0.000000 0.000000 0.000000 0.825227 13.551952 -41.765908 45.024531 -50.780455 22.257833 24.604328 -11.353881 -48.558446 0.000000 0.000000 0.000000 -7.125000 0.000000 0.000000 -40.296184 78.828971 32.502113 0.000000 0.000000 0.000000 7.676828 -26.230654 24.928328 -35.088666 -44.875363 -14.875963 -24.233406 -1.947857 -29.376368 0.000000 0.000000 0.000000 7.125000 0.000000 0.000000 3.827931 -1.645536 3.944970
